<svg data-v-5f19e91b="" xmlns="http://www.w3.org/2000/svg" width="525" height="90" viewBox="0 0 525 90"><!----> <!----> <!----> <g data-v-5f19e91b="" id="a8bc07bf-51ee-64bf-dc38-8fc6a248846e" fill="black" transform="matrix(4.1958041398401305,0,0,4.1958041398401305,79.05375790889829,0.4405607068047246)"><path d="M4.96 14.92L4.96 5.96L7.48 5.96L7.48 4.26L0.49 4.26L0.49 5.96L3.01 5.96L3.01 14.92ZM10.51 6.51L8.62 6.51L8.62 14.92L10.51 14.92ZM10.51 3.47L8.62 3.47L8.62 5.28L10.51 5.28ZM16.03 6.34C15.08 6.34 14.45 6.59 13.97 7.08L13.89 6.51L12.25 6.51L12.25 14.92L14.14 14.92L14.14 9.39C14.14 8.44 14.64 8.01 15.43 8.01C16.37 8.01 16.67 8.47 16.67 9.62L16.67 14.92L18.56 14.92L18.56 9.60C18.56 8.46 19.07 8.01 19.87 8.01C20.80 8.01 21.11 8.47 21.11 9.58L21.11 14.92L23.00 14.92L23.00 9.38C23.00 7.28 22.27 6.34 20.33 6.34C19.31 6.34 18.51 6.69 18.05 7.34C17.63 6.65 16.97 6.34 16.03 6.34ZM29.01 12.40C28.97 13.13 28.66 13.54 27.69 13.54C26.73 13.54 26.35 13.02 26.35 11.98L26.35 11.28L30.83 11.28L30.83 9.55C30.83 7.34 29.81 6.34 27.69 6.34C25.54 6.34 24.50 7.49 24.50 9.58L24.50 11.79C24.50 14.11 25.52 15.09 27.71 15.09C29.86 15.09 30.70 14.15 30.76 12.40ZM27.71 7.91C28.67 7.91 29.04 8.43 29.04 9.53L29.04 9.84L26.35 9.84L26.35 9.59C26.35 8.39 26.73 7.91 27.71 7.91ZM35.94 15.09C37.46 15.09 38.70 14.11 38.70 11.89L38.70 9.65C38.70 7.49 37.80 6.34 35.99 6.34C35.18 6.34 34.47 6.59 34.05 7.07L33.96 6.51L32.31 6.51L32.31 17.63L34.19 17.63L34.19 14.50C34.57 14.87 35.13 15.09 35.94 15.09ZM34.20 9.39C34.20 8.41 34.68 7.99 35.52 7.99C36.43 7.99 36.81 8.48 36.81 9.62L36.81 11.80C36.81 13.01 36.32 13.43 35.50 13.43C34.75 13.43 34.20 13.05 34.20 11.94ZM44.62 14.92L46.28 14.92L46.28 9.24C46.28 7.07 45.07 6.34 43.27 6.34C41.30 6.34 40.26 7.17 40.26 9.24L41.96 9.24C41.96 8.26 42.41 7.90 43.26 7.90C44.09 7.90 44.49 8.32 44.49 9.28L44.49 10.14C44.10 10.09 43.64 10.05 43.27 10.05C40.98 10.05 40.01 11.00 40.01 12.70C40.01 14.25 41.01 15.09 42.43 15.09C43.37 15.09 44.10 14.80 44.55 14.28ZM44.49 12.05C44.49 13.01 43.81 13.54 43.04 13.54C42.27 13.54 41.87 13.19 41.87 12.54C41.87 11.77 42.29 11.37 43.43 11.37C43.69 11.37 44.20 11.40 44.49 11.45ZM50.97 9.77C49.90 9.60 49.56 9.38 49.56 8.74C49.56 8.26 49.91 7.95 50.72 7.95C51.62 7.95 51.95 8.33 51.97 8.96L53.70 8.96C53.70 7.28 52.68 6.34 50.71 6.34C48.86 6.34 47.74 7.22 47.74 8.82C47.74 10.58 48.79 11.20 50.53 11.44C51.62 11.58 52.01 11.82 52.01 12.57C52.01 13.16 51.58 13.48 50.78 13.48C49.80 13.48 49.39 13.12 49.38 12.42L47.59 12.42C47.59 14.10 48.57 15.09 50.67 15.09C52.67 15.09 53.87 14.17 53.87 12.45C53.87 10.56 52.49 10.00 50.97 9.77ZM58.32 9.77C57.25 9.60 56.91 9.38 56.91 8.74C56.91 8.26 57.26 7.95 58.07 7.95C58.97 7.95 59.30 8.33 59.32 8.96L61.05 8.96C61.05 7.28 60.03 6.34 58.06 6.34C56.21 6.34 55.09 7.22 55.09 8.82C55.09 10.58 56.14 11.20 57.88 11.44C58.97 11.58 59.36 11.82 59.36 12.57C59.36 13.16 58.93 13.48 58.13 13.48C57.15 13.48 56.74 13.12 56.73 12.42L54.94 12.42C54.94 14.10 55.92 15.09 58.02 15.09C60.02 15.09 61.22 14.17 61.22 12.45C61.22 10.56 59.84 10.00 58.32 9.77ZM70.50 9.49L68.43 4.26L66.18 4.26L66.18 14.92L68.03 14.92L68.03 7.77L69.68 11.79L71.18 11.79L72.84 7.76L72.84 14.92L74.69 14.92L74.69 4.26L72.58 4.26ZM78.19 9.63C78.19 8.37 78.53 8.01 79.49 8.01C80.46 8.01 80.79 8.37 80.79 9.63L80.79 11.80C80.79 13.06 80.46 13.44 79.49 13.44C78.53 13.44 78.19 13.06 78.19 11.80ZM79.49 6.34C77.31 6.34 76.30 7.34 76.30 9.65L76.30 11.79C76.30 14.11 77.31 15.09 79.49 15.09C81.68 15.09 82.68 14.11 82.68 11.79L82.68 9.65C82.68 7.34 81.68 6.34 79.49 6.34ZM84.24 6.51L84.24 14.92L86.13 14.92L86.13 9.42C86.13 8.44 86.62 8.01 87.42 8.01C88.35 8.01 88.66 8.47 88.66 9.58L88.66 14.92L90.55 14.92L90.55 9.38C90.55 7.34 89.81 6.34 87.99 6.34C87.09 6.34 86.39 6.59 85.96 7.10L85.88 6.51ZM96.54 12.40C96.50 13.13 96.19 13.54 95.23 13.54C94.26 13.54 93.88 13.02 93.88 11.98L93.88 11.28L98.36 11.28L98.36 9.55C98.36 7.34 97.34 6.34 95.23 6.34C93.07 6.34 92.04 7.49 92.04 9.58L92.04 11.79C92.04 14.11 93.06 15.09 95.24 15.09C97.40 15.09 98.24 14.15 98.29 12.40ZM95.24 7.91C96.21 7.91 96.57 8.43 96.57 9.53L96.57 9.84L93.88 9.84L93.88 9.59C93.88 8.39 94.26 7.91 95.24 7.91ZM100.39 15.95C100.06 15.95 99.81 15.90 99.58 15.85L99.58 17.63C99.97 17.74 100.25 17.77 100.70 17.77C102.40 17.77 103.39 16.98 104.13 14.17L106.15 6.51L104.05 6.51L102.82 12.61L101.25 6.51L99.09 6.51L101.65 14.80L101.60 15.02C101.40 15.79 100.90 15.95 100.39 15.95Z"></path></g> <!----> <g data-v-5f19e91b="" id="bfa9a804-7ca6-6305-1e32-4fb5e06e1da2" transform="matrix(0.9009641206937294,0,0,0.9009641206937294,-13.948090076329485,0)" stroke="none" fill="black"><g><path d="M55.076,41.137c-0.353-0.075-0.622-0.151-0.959-0.226V28.788c5.604,0.904,11.528,3.359,17.053,7.246l10.771-15.209   c-7.531-6.043-16.577-9.502-27.824-10.184V0h-5.421v10.545c-17.882,0.476-28.812,10.728-28.812,24.818v0.226   c0,15.819,12.516,20.545,28.812,24.305v12.77c-7.262-0.928-14.178-3.966-20.483-8.986L16.224,77.993   c8.629,7.726,20.17,11.969,32.472,12.715v9.185h5.421v-9.074c18.032-0.483,29.934-9.811,29.934-25.254v-0.229   C84.051,50.798,72.95,45.024,55.076,41.137z M41.645,33.594v-0.23c0-2.633,2.34-4.751,7.051-4.949v11.088   C43.215,37.838,41.645,36.295,41.645,33.594z M62.294,67.666c0,3.189-2.875,5.132-8.177,5.299V61.289   c6.389,1.856,8.177,3.53,8.177,6.155V67.666z"></path></g></g></svg>